<svg width="103" height="58" viewBox="0 0 103 58" fill="none" xmlns="http://www.w3.org/2000/svg">
<path d="M46.7304 32.2197C46.7304 32.6152 46.7057 33.0273 46.6563 33.4558H37.0888C37.1547 34.3128 37.4266 34.9721 37.9046 35.4336C38.399 35.8786 39.0006 36.1011 39.7093 36.1011C40.7641 36.1011 41.4976 35.6561 41.9096 34.7661H46.4091C46.1783 35.6725 45.758 36.4884 45.1482 37.2136C44.5549 37.9387 43.805 38.5074 42.8985 38.9194C41.992 39.3314 40.9784 39.5375 39.8577 39.5375C38.5062 39.5375 37.303 39.249 36.2482 38.6722C35.1934 38.0953 34.3693 37.2712 33.776 36.2C33.1827 35.1287 32.886 33.8761 32.886 32.4422C32.886 31.0083 33.1744 29.7557 33.7513 28.6844C34.3446 27.6131 35.1687 26.789 36.2235 26.2122C37.2783 25.6353 38.4897 25.3469 39.8577 25.3469C41.1927 25.3469 42.3793 25.6271 43.4177 26.1874C44.456 26.7478 45.2636 27.5472 45.8404 28.5855C46.4338 29.6238 46.7304 30.8352 46.7304 32.2197ZM42.404 31.1072C42.404 30.382 42.1568 29.8051 41.6624 29.3766C41.1679 28.9481 40.5499 28.7338 39.8082 28.7338C39.0995 28.7338 38.4979 28.9399 38.0035 29.3519C37.5255 29.7639 37.2289 30.349 37.1135 31.1072H42.404ZM57.3662 25.3963C58.9814 25.3963 60.267 25.9237 61.2229 26.9786C62.1953 28.0169 62.6815 29.4508 62.6815 31.2802V39.3397H58.4787V31.8488C58.4787 30.9259 58.2397 30.2089 57.7618 29.698C57.2838 29.1871 56.641 28.9316 55.8334 28.9316C55.0258 28.9316 54.3831 29.1871 53.9051 29.698C53.4271 30.2089 53.1882 30.9259 53.1882 31.8488V39.3397H48.9607V25.5447H53.1882V27.3741C53.6167 26.7643 54.1935 26.2863 54.9187 25.9402C55.6439 25.5776 56.4597 25.3963 57.3662 25.3963ZM73.3078 35.755V39.3397H71.157C69.6242 39.3397 68.4293 38.9688 67.5723 38.2272C66.7152 37.469 66.2867 36.2412 66.2867 34.5436V29.0552H64.6056V25.5447H66.2867V22.1824H70.5142V25.5447H73.2831V29.0552H70.5142V34.593C70.5142 35.005 70.6131 35.3017 70.8109 35.483C71.0086 35.6643 71.3383 35.755 71.7998 35.755H73.3078ZM79.8901 27.8438C80.3846 27.0857 81.0026 26.4924 81.7443 26.0638C82.4859 25.6188 83.31 25.3963 84.2165 25.3963V29.8711H83.0546C81.9997 29.8711 81.2086 30.1018 80.6812 30.5633C80.1538 31.0083 79.8901 31.7994 79.8901 32.9366V39.3397H75.6626V25.5447H79.8901V27.8438ZM85.3966 32.4174C85.3966 31 85.6603 29.7557 86.1877 28.6844C86.7316 27.6131 87.465 26.789 88.388 26.2122C89.311 25.6353 90.3411 25.3469 91.4783 25.3469C92.4507 25.3469 93.2995 25.5447 94.0247 25.9402C94.7663 26.3358 95.335 26.8549 95.7305 27.4977V25.5447H99.958V39.3397H95.7305V37.3866C95.3185 38.0294 94.7416 38.5486 93.9999 38.9441C93.2748 39.3397 92.426 39.5375 91.4536 39.5375C90.3328 39.5375 89.311 39.249 88.388 38.6722C87.465 38.0788 86.7316 37.2465 86.1877 36.1752C85.6603 35.0875 85.3966 33.8349 85.3966 32.4174ZM95.7305 32.4422C95.7305 31.3874 95.4338 30.555 94.8405 29.9452C94.2637 29.3354 93.5549 29.0305 92.7144 29.0305C91.8738 29.0305 91.1569 29.3354 90.5636 29.9452C89.9867 30.5386 89.6983 31.3626 89.6983 32.4174C89.6983 33.4723 89.9867 34.3128 90.5636 34.9391C91.1569 35.5489 91.8738 35.8538 92.7144 35.8538C93.5549 35.8538 94.2637 35.5489 94.8405 34.9391C95.4338 34.3293 95.7305 33.497 95.7305 32.4422Z" fill="black"/>
<path d="M1.48749 18.3652V6.59841H21.6569L30.2589 10.6542L42.6402 0.732086L32.2433 14.623L39.2033 18.3652L18.2199 44.0954H1.48749H42.6402L47.7052 57.588H0.492584L1.48749 44.0954L24.732 18.3652H1.48749Z" fill="#7C3AED"/>
</svg>
