<svg width="45" height="45" viewBox="0 0 45 45" fill="none" xmlns="http://www.w3.org/2000/svg">
<path d="M24.4574 0.591797C26.9299 0.59839 28.1848 0.611577 29.2683 0.642346L29.6947 0.65773C30.187 0.675313 30.6727 0.69729 31.2595 0.723664C33.598 0.833553 35.1936 1.20278 36.5936 1.74563C38.0441 2.30387 39.2661 3.05991 40.488 4.27968C41.606 5.37798 42.4708 6.70707 43.0221 8.17415C43.5649 9.57414 43.9342 11.1697 44.044 13.5104C44.0704 14.095 44.0924 14.5807 44.11 15.0752L44.1232 15.5016C44.1561 16.5829 44.1693 17.8378 44.1737 20.3103L44.1759 21.9499V24.829C44.1813 26.432 44.1644 28.0351 44.1254 29.6377L44.1122 30.0641C44.0946 30.5586 44.0726 31.0443 44.0462 31.6289C43.9364 33.9695 43.5627 35.5629 43.0221 36.9651C42.4708 38.4322 41.606 39.7613 40.488 40.8596C39.3897 41.9776 38.0606 42.8424 36.5936 43.3936C35.1936 43.9365 33.598 44.3057 31.2595 44.4156L29.6947 44.4815L29.2683 44.4947C28.1848 44.5255 26.9299 44.5409 24.4574 44.5453L22.8179 44.5475H19.941C18.3371 44.5531 16.7333 44.5363 15.13 44.4969L14.7036 44.4837C14.1819 44.464 13.6603 44.4413 13.1388 44.4156C10.8004 44.3057 9.20478 43.9365 7.8026 43.3936C6.3363 42.8421 5.00799 41.9773 3.91032 40.8596C2.79153 39.7615 1.92596 38.4324 1.37408 36.9651C0.831228 35.5651 0.462 33.9695 0.352111 31.6289L0.286178 30.0641L0.275189 29.6377C0.234675 28.0351 0.216358 26.432 0.220244 24.829V20.3103C0.214161 18.7072 0.23028 17.1042 0.268596 15.5016L0.28398 15.0752C0.301562 14.5807 0.32354 14.095 0.349913 13.5104C0.459803 11.1697 0.82903 9.57634 1.37188 8.17415C1.92505 6.70647 2.79214 5.37733 3.91252 4.27968C5.00955 3.16221 6.33709 2.29744 7.8026 1.74563C9.20478 1.20278 10.7982 0.833553 13.1388 0.723664C13.7234 0.69729 14.2113 0.675313 14.7036 0.65773L15.13 0.644544C16.7326 0.605495 18.3357 0.588644 19.9388 0.593994L24.4574 0.591797ZM22.1981 11.5807C19.2836 11.5807 16.4886 12.7385 14.4277 14.7993C12.3669 16.8601 11.2092 19.6552 11.2092 22.5696C11.2092 25.4841 12.3669 28.2791 14.4277 30.34C16.4886 32.4008 19.2836 33.5585 22.1981 33.5585C25.1125 33.5585 27.9076 32.4008 29.9684 30.34C32.0292 28.2791 33.187 25.4841 33.187 22.5696C33.187 19.6552 32.0292 16.8601 29.9684 14.7993C27.9076 12.7385 25.1125 11.5807 22.1981 11.5807ZM22.1981 15.9763C23.0639 15.9761 23.9213 16.1465 24.7213 16.4777C25.5213 16.809 26.2483 17.2945 26.8606 17.9067C27.473 18.5188 27.9587 19.2456 28.2902 20.0455C28.6217 20.8453 28.7924 21.7027 28.7925 22.5685C28.7927 23.4344 28.6223 24.2918 28.2911 25.0918C27.9598 25.8918 27.4743 26.6187 26.8622 27.2311C26.25 27.8434 25.5232 28.3292 24.7234 28.6607C23.9235 28.9922 23.0661 29.1628 22.2003 29.163C20.4516 29.163 18.7746 28.4683 17.5381 27.2318C16.3016 25.9953 15.6069 24.3183 15.6069 22.5696C15.6069 20.821 16.3016 19.1439 17.5381 17.9074C18.7746 16.6709 20.4516 15.9763 22.2003 15.9763M33.7386 8.28404C33.01 8.28404 32.3113 8.57348 31.7961 9.08868C31.2808 9.60389 30.9914 10.3027 30.9914 11.0313C30.9914 11.7599 31.2808 12.4586 31.7961 12.9739C32.3113 13.4891 33.01 13.7785 33.7386 13.7785C34.4672 13.7785 35.166 13.4891 35.6812 12.9739C36.1964 12.4586 36.4859 11.7599 36.4859 11.0313C36.4859 10.3027 36.1964 9.60389 35.6812 9.08868C35.166 8.57348 34.4672 8.28404 33.7386 8.28404Z" fill="#8A38F5"/>
</svg>
